<svg width="24" height="24" viewBox="0 0 24 24" fill="none" xmlns="http://www.w3.org/2000/svg">
<path fill-rule="evenodd" clip-rule="evenodd" d="M10.5 2.25H10.4548C9.3204 2.24999 8.40571 2.24997 7.67622 2.33221C6.92195 2.41725 6.27343 2.59807 5.71714 3.02493C5.45715 3.22443 5.22443 3.45715 5.02493 3.71714C4.59807 4.27343 4.41725 4.92195 4.33221 5.67622C4.24997 6.40571 4.24999 7.3204 4.25 8.45481V8.5V15.5V15.5452C4.24999 16.6796 4.24997 17.5943 4.33221 18.3238C4.41725 19.0781 4.59807 19.7266 5.02493 20.2829C5.22443 20.5429 5.45715 20.7756 5.71714 20.9751C6.27343 21.4019 6.92195 21.5828 7.67622 21.6678C8.40571 21.75 9.32039 21.75 10.4548 21.75H10.5H11C11.4142 21.75 11.75 21.4142 11.75 21C11.75 20.5858 11.4142 20.25 11 20.25H10.5C9.30977 20.25 8.47987 20.2489 7.84426 20.1772C7.22376 20.1073 6.88193 19.9781 6.63029 19.785C6.47429 19.6653 6.33466 19.5257 6.21495 19.3697C6.02187 19.1181 5.89272 18.7762 5.82277 18.1557C5.75112 17.5201 5.75 16.6902 5.75 15.5V8.5C5.75 7.30977 5.75112 6.47987 5.82277 5.84426C5.89272 5.22376 6.02187 4.88193 6.21495 4.63029C6.33466 4.47429 6.47429 4.33466 6.63029 4.21495C6.88193 4.02187 7.22376 3.89272 7.84426 3.82277C8.47987 3.75112 9.30977 3.75 10.5 3.75H11C11.4142 3.75 11.75 3.41421 11.75 3C11.75 2.58579 11.4142 2.25 11 2.25H10.5ZM16.5303 7.46967C16.2374 7.17678 15.7626 7.17678 15.4697 7.46967C15.1768 7.76256 15.1768 8.23744 15.4697 8.53033L18.1893 11.25H11C10.5858 11.25 10.25 11.5858 10.25 12C10.25 12.4142 10.5858 12.75 11 12.75H18.1893L15.4697 15.4697C15.1768 15.7626 15.1768 16.2374 15.4697 16.5303C15.7626 16.8232 16.2374 16.8232 16.5303 16.5303L20.5303 12.5303C20.8232 12.2374 20.8232 11.7626 20.5303 11.4697L16.5303 7.46967Z" fill="#291940"/>
<path d="M10.4548 2.25L10.4548 2.75H10.4548V2.25ZM7.67622 2.33221L7.62021 1.83536L7.62021 1.83536L7.67622 2.33221ZM5.71714 3.02493L6.02153 3.4216L6.02153 3.4216L5.71714 3.02493ZM5.02493 3.71714L5.4216 4.02153L5.4216 4.02153L5.02493 3.71714ZM4.33221 5.67622L3.83536 5.62021L3.83536 5.62021L4.33221 5.67622ZM4.25 8.45481L4.75 8.45481L4.75 8.45481L4.25 8.45481ZM4.25 15.5452L4.75 15.5452V15.5452H4.25ZM4.33221 18.3238L3.83536 18.3798L3.83536 18.3798L4.33221 18.3238ZM5.02493 20.2829L4.62825 20.5872L4.62825 20.5872L5.02493 20.2829ZM5.71714 20.9751L6.02153 20.5784L6.02152 20.5784L5.71714 20.9751ZM7.67622 21.6678L7.73223 21.1709L7.73223 21.1709L7.67622 21.6678ZM10.4548 21.75L10.4548 21.25L10.4548 21.25L10.4548 21.75ZM7.84426 20.1772L7.78824 20.6741L7.78824 20.6741L7.84426 20.1772ZM6.63029 19.785L6.32591 20.1817L6.32591 20.1817L6.63029 19.785ZM6.21495 19.3697L6.61163 19.0653L6.61163 19.0653L6.21495 19.3697ZM5.82277 18.1557L6.31962 18.0997L6.31962 18.0997L5.82277 18.1557ZM5.82277 5.84426L6.31962 5.90027L6.31962 5.90027L5.82277 5.84426ZM6.21495 4.63029L5.81828 4.32591L5.81828 4.32591L6.21495 4.63029ZM6.63029 4.21495L6.32591 3.81828L6.32591 3.81828L6.63029 4.21495ZM7.84426 3.82277L7.90027 4.31962L7.90027 4.31962L7.84426 3.82277ZM15.4697 7.46967L15.1161 7.11612L15.1161 7.11612L15.4697 7.46967ZM16.5303 7.46967L16.8839 7.11612L16.8839 7.11612L16.5303 7.46967ZM15.4697 8.53033L15.1161 8.88388L15.1161 8.88388L15.4697 8.53033ZM18.1893 11.25V11.75C18.3916 11.75 18.5739 11.6282 18.6513 11.4413C18.7287 11.2545 18.6859 11.0394 18.5429 10.8964L18.1893 11.25ZM18.1893 12.75L18.5429 13.1036C18.6859 12.9606 18.7287 12.7455 18.6513 12.5587C18.5739 12.3718 18.3916 12.25 18.1893 12.25V12.75ZM15.4697 15.4697L15.1161 15.1161L15.1161 15.1161L15.4697 15.4697ZM15.4697 16.5303L15.1161 16.8839L15.1161 16.8839L15.4697 16.5303ZM16.5303 16.5303L16.8839 16.8839L16.8839 16.8839L16.5303 16.5303ZM20.5303 12.5303L20.8839 12.8839L20.8839 12.8839L20.5303 12.5303ZM20.5303 11.4697L20.8839 11.1161L20.8839 11.1161L20.5303 11.4697ZM10.4548 2.75H10.5V1.75H10.4548V2.75ZM7.73223 2.82907C8.42743 2.75069 9.30968 2.74999 10.4548 2.75L10.4548 1.75C9.33111 1.74999 8.384 1.74925 7.62021 1.83536L7.73223 2.82907ZM6.02153 3.4216C6.47625 3.07268 7.02253 2.90907 7.73223 2.82907L7.62021 1.83536C6.82137 1.92542 6.07061 2.12347 5.41276 2.62825L6.02153 3.4216ZM5.4216 4.02153C5.5945 3.7962 5.7962 3.5945 6.02153 3.4216L5.41276 2.62825C5.1181 2.85435 4.85435 3.1181 4.62825 3.41276L5.4216 4.02153ZM4.82907 5.73223C4.90907 5.02253 5.07268 4.47625 5.4216 4.02153L4.62825 3.41276C4.12347 4.07061 3.92542 4.82137 3.83536 5.62021L4.82907 5.73223ZM4.75 8.45481C4.74999 7.30968 4.75069 6.42743 4.82907 5.73223L3.83536 5.62021C3.74925 6.384 3.74999 7.33111 3.75 8.45482L4.75 8.45481ZM4.75 8.5V8.45481H3.75V8.5H4.75ZM4.75 15.5V8.5H3.75V15.5H4.75ZM4.75 15.5452V15.5H3.75V15.5452H4.75ZM4.82907 18.2678C4.75069 17.5726 4.74999 16.6903 4.75 15.5452L3.75 15.5452C3.74999 16.6689 3.74925 17.616 3.83536 18.3798L4.82907 18.2678ZM5.4216 19.9785C5.07268 19.5238 4.90907 18.9775 4.82907 18.2678L3.83536 18.3798C3.92542 19.1786 4.12347 19.9294 4.62825 20.5872L5.4216 19.9785ZM6.02152 20.5784C5.7962 20.4055 5.5945 20.2038 5.4216 19.9785L4.62825 20.5872C4.85435 20.8819 5.1181 21.1456 5.41276 21.3718L6.02152 20.5784ZM7.73223 21.1709C7.02253 21.0909 6.47625 20.9273 6.02153 20.5784L5.41276 21.3718C6.07061 21.8765 6.82137 22.0746 7.62021 22.1646L7.73223 21.1709ZM10.4548 21.25C9.30967 21.25 8.42743 21.2493 7.73223 21.1709L7.6202 22.1646C8.38399 22.2507 9.3311 22.25 10.4548 22.25L10.4548 21.25ZM10.5 21.25H10.4548V22.25H10.5V21.25ZM11 21.25H10.5V22.25H11V21.25ZM11.25 21C11.25 21.1381 11.1381 21.25 11 21.25V22.25C11.6904 22.25 12.25 21.6904 12.25 21H11.25ZM11 20.75C11.1381 20.75 11.25 20.8619 11.25 21H12.25C12.25 20.3096 11.6904 19.75 11 19.75V20.75ZM10.5 20.75H11V19.75H10.5V20.75ZM7.78824 20.6741C8.45842 20.7496 9.32163 20.75 10.5 20.75V19.75C9.29791 19.75 8.50131 19.7481 7.90027 19.6804L7.78824 20.6741ZM6.32591 20.1817C6.67907 20.4527 7.12311 20.5991 7.78824 20.6741L7.90027 19.6804C7.3244 19.6155 7.08478 19.5036 6.93467 19.3884L6.32591 20.1817ZM5.81828 19.6741C5.96458 19.8648 6.13524 20.0354 6.32591 20.1817L6.93467 19.3884C6.81334 19.2953 6.70473 19.1867 6.61163 19.0653L5.81828 19.6741ZM5.32592 18.2118C5.4009 18.8769 5.54728 19.3209 5.81828 19.6741L6.61163 19.0653C6.49645 18.9152 6.38454 18.6756 6.31962 18.0997L5.32592 18.2118ZM5.25 15.5C5.25 16.6784 5.25037 17.5416 5.32592 18.2118L6.31962 18.0997C6.25187 17.4987 6.25 16.7021 6.25 15.5H5.25ZM5.25 8.5V15.5H6.25V8.5H5.25ZM5.32592 5.78824C5.25037 6.45842 5.25 7.32163 5.25 8.5H6.25C6.25 7.29791 6.25187 6.50131 6.31962 5.90027L5.32592 5.78824ZM5.81828 4.32591C5.54728 4.67907 5.4009 5.12311 5.32592 5.78824L6.31962 5.90027C6.38454 5.3244 6.49645 5.08478 6.61163 4.93467L5.81828 4.32591ZM6.32591 3.81828C6.13524 3.96458 5.96458 4.13524 5.81828 4.32591L6.61163 4.93467C6.70473 4.81334 6.81334 4.70473 6.93467 4.61163L6.32591 3.81828ZM7.78824 3.32592C7.12311 3.4009 6.67907 3.54728 6.32591 3.81828L6.93467 4.61163C7.08478 4.49645 7.3244 4.38454 7.90027 4.31962L7.78824 3.32592ZM10.5 3.25C9.32163 3.25 8.45842 3.25037 7.78824 3.32592L7.90027 4.31962C8.50131 4.25187 9.29791 4.25 10.5 4.25V3.25ZM11 3.25H10.5V4.25H11V3.25ZM11.25 3C11.25 3.13807 11.1381 3.25 11 3.25V4.25C11.6904 4.25 12.25 3.69036 12.25 3H11.25ZM11 2.75C11.1381 2.75 11.25 2.86193 11.25 3H12.25C12.25 2.30964 11.6904 1.75 11 1.75V2.75ZM10.5 2.75H11V1.75H10.5V2.75ZM15.8232 7.82322C15.9209 7.72559 16.0791 7.72559 16.1768 7.82322L16.8839 7.11612C16.3957 6.62796 15.6043 6.62796 15.1161 7.11612L15.8232 7.82322ZM15.8232 8.17678C15.7256 8.07915 15.7256 7.92085 15.8232 7.82322L15.1161 7.11612C14.628 7.60427 14.628 8.39573 15.1161 8.88388L15.8232 8.17678ZM18.5429 10.8964L15.8232 8.17678L15.1161 8.88388L17.8358 11.6036L18.5429 10.8964ZM11 11.75H18.1893V10.75H11V11.75ZM10.75 12C10.75 11.8619 10.8619 11.75 11 11.75V10.75C10.3096 10.75 9.75 11.3096 9.75 12H10.75ZM11 12.25C10.8619 12.25 10.75 12.1381 10.75 12H9.75C9.75 12.6904 10.3096 13.25 11 13.25V12.25ZM18.1893 12.25H11V13.25H18.1893V12.25ZM15.8232 15.8232L18.5429 13.1036L17.8358 12.3964L15.1161 15.1161L15.8232 15.8232ZM15.8232 16.1768C15.7256 16.0791 15.7256 15.9209 15.8232 15.8232L15.1161 15.1161C14.628 15.6043 14.628 16.3957 15.1161 16.8839L15.8232 16.1768ZM16.1768 16.1768C16.0791 16.2744 15.9209 16.2744 15.8232 16.1768L15.1161 16.8839C15.6043 17.372 16.3957 17.372 16.8839 16.8839L16.1768 16.1768ZM20.1768 12.1768L16.1768 16.1768L16.8839 16.8839L20.8839 12.8839L20.1768 12.1768ZM20.1768 11.8232C20.2744 11.9209 20.2744 12.0791 20.1768 12.1768L20.8839 12.8839C21.372 12.3957 21.372 11.6043 20.8839 11.1161L20.1768 11.8232ZM16.1768 7.82322L20.1768 11.8232L20.8839 11.1161L16.8839 7.11612L16.1768 7.82322Z" fill="#291940"/>
</svg>
